<?xml version="1.0" encoding="UTF-8" standalone="no"?>
<!DOCTYPE svg PUBLIC "-//W3C//DTD SVG 1.1//EN"
 "http://www.w3.org/Graphics/SVG/1.1/DTD/svg11.dtd">
<!-- Generated by graphviz version 12.1.2 (20240928.0832)
 -->
<!-- Title: axios Pages: 1 -->
<svg width="549pt" height="188pt"
 viewBox="0.00 0.00 549.40 188.00" xmlns="http://www.w3.org/2000/svg" xmlns:xlink="http://www.w3.org/1999/xlink">
<g id="graph0" class="graph" transform="scale(1 1) rotate(0) translate(4 184)">
<title>axios</title>
<polygon fill="white" stroke="none" points="-4,4 -4,-184 545.4,-184 545.4,4 -4,4"/>
<!-- axios -->
<g id="node1" class="node">
<title>axios</title>
<ellipse fill="none" stroke="black" cx="313.63" cy="-162" rx="30.37" ry="18"/>
<text text-anchor="middle" x="313.63" y="-156.95" font-family="Times New Roman,serif" font-size="14.00">axios</text>
</g>
<!-- form&#45;data -->
<g id="node2" class="node">
<title>form&#45;data</title>
<ellipse fill="none" stroke="black" cx="177.63" cy="-90" rx="47.77" ry="18"/>
<text text-anchor="middle" x="177.63" y="-84.95" font-family="Times New Roman,serif" font-size="14.00">form&#45;data</text>
</g>
<!-- axios&#45;&gt;form&#45;data -->
<g id="edge1" class="edge">
<title>axios&#45;&gt;form&#45;data</title>
<path fill="none" stroke="black" d="M291.17,-149.44C270.44,-138.77 239.26,-122.72 214.82,-110.14"/>
<polygon fill="black" stroke="black" points="216.65,-107.15 206.15,-105.68 213.44,-113.37 216.65,-107.15"/>
</g>
<!-- proxy&#45;from&#45;env -->
<g id="node6" class="node">
<title>proxy&#45;from&#45;env</title>
<ellipse fill="none" stroke="black" cx="313.63" cy="-90" rx="70.29" ry="18"/>
<text text-anchor="middle" x="313.63" y="-84.95" font-family="Times New Roman,serif" font-size="14.00">proxy&#45;from&#45;env</text>
</g>
<!-- axios&#45;&gt;proxy&#45;from&#45;env -->
<g id="edge5" class="edge">
<title>axios&#45;&gt;proxy&#45;from&#45;env</title>
<path fill="none" stroke="black" d="M313.63,-143.7C313.63,-136.41 313.63,-127.73 313.63,-119.54"/>
<polygon fill="black" stroke="black" points="317.13,-119.62 313.63,-109.62 310.13,-119.62 317.13,-119.62"/>
</g>
<!-- follow&#45;redirects -->
<g id="node7" class="node">
<title>follow&#45;redirects</title>
<ellipse fill="none" stroke="black" cx="471.63" cy="-90" rx="69.78" ry="18"/>
<text text-anchor="middle" x="471.63" y="-84.95" font-family="Times New Roman,serif" font-size="14.00">follow&#45;redirects</text>
</g>
<!-- axios&#45;&gt;follow&#45;redirects -->
<g id="edge6" class="edge">
<title>axios&#45;&gt;follow&#45;redirects</title>
<path fill="none" stroke="black" d="M337.62,-150.37C361.3,-139.88 398.08,-123.59 427.11,-110.72"/>
<polygon fill="black" stroke="black" points="428.31,-114.02 436.04,-106.77 425.48,-107.62 428.31,-114.02"/>
</g>
<!-- asynckit -->
<g id="node3" class="node">
<title>asynckit</title>
<ellipse fill="none" stroke="black" cx="41.63" cy="-18" rx="41.63" ry="18"/>
<text text-anchor="middle" x="41.63" y="-12.95" font-family="Times New Roman,serif" font-size="14.00">asynckit</text>
</g>
<!-- form&#45;data&#45;&gt;asynckit -->
<g id="edge2" class="edge">
<title>form&#45;data&#45;&gt;asynckit</title>
<path fill="none" stroke="black" d="M150.11,-74.83C129.24,-64.09 100.38,-49.24 77.67,-37.55"/>
<polygon fill="black" stroke="black" points="79.56,-34.59 69.07,-33.12 76.36,-40.81 79.56,-34.59"/>
</g>
<!-- combined&#45;stream -->
<g id="node4" class="node">
<title>combined&#45;stream</title>
<ellipse fill="none" stroke="black" cx="177.63" cy="-18" rx="75.92" ry="18"/>
<text text-anchor="middle" x="177.63" y="-12.95" font-family="Times New Roman,serif" font-size="14.00">combined&#45;stream</text>
</g>
<!-- form&#45;data&#45;&gt;combined&#45;stream -->
<g id="edge3" class="edge">
<title>form&#45;data&#45;&gt;combined&#45;stream</title>
<path fill="none" stroke="black" d="M177.63,-71.7C177.63,-64.41 177.63,-55.73 177.63,-47.54"/>
<polygon fill="black" stroke="black" points="181.13,-47.62 177.63,-37.62 174.13,-47.62 181.13,-47.62"/>
</g>
<!-- mime&#45;types -->
<g id="node5" class="node">
<title>mime&#45;types</title>
<ellipse fill="none" stroke="black" cx="326.63" cy="-18" rx="55.45" ry="18"/>
<text text-anchor="middle" x="326.63" y="-12.95" font-family="Times New Roman,serif" font-size="14.00">mime&#45;types</text>
</g>
<!-- form&#45;data&#45;&gt;mime&#45;types -->
<g id="edge4" class="edge">
<title>form&#45;data&#45;&gt;mime&#45;types</title>
<path fill="none" stroke="black" d="M206.71,-75.34C229.24,-64.75 260.72,-49.96 285.78,-38.19"/>
<polygon fill="black" stroke="black" points="287.15,-41.41 294.71,-33.99 284.17,-35.08 287.15,-41.41"/>
</g>
</g>
</svg>
